<?xml version="1.0" encoding="UTF-8"?>
<svg id="Layer_1" xmlns="http://www.w3.org/2000/svg" version="1.1" viewBox="950 529 20.5 20">
  <defs>
    <style>
      .st0 {
        fill: #43b8fa;
      }
    </style>
  </defs>
  <path class="st0" d="M956.36,548.25c-1.25.53-2.34-1.95-2.04-2.87l2.83-2.26c-.63-.9-1.8-2.04-1.98-3.14-.17-1.08,1.87-1.95,2.76-1.93l2.3,2.39c1.12-1.11,2.11-2.42,2.84-4.03l-11.75-.13c-.75-.91-.75-2.98.07-3.7l6.66-.21.45-2.36c1.08-.3,2.31-.29,3.4,0l.41,2.37,6.51.24c1.01.04.9,2.73.48,3.33l-2.03.67c-1,2.4-2.27,4.36-4.03,6.45l2.92,2.36c.22.77-.86,2.93-1.71,2.84-1.53-.19-2.7-1.36-4.08-2.37-1.15.63-2.48,1.69-4.01,2.33Z"/>
</svg>
