<?xml version="1.0" encoding="UTF-8" standalone="no"?>
<!DOCTYPE svg PUBLIC "-//W3C//DTD SVG 1.1//EN" "http://www.w3.org/Graphics/SVG/1.1/DTD/svg11.dtd">
<svg width="100%" height="100%" viewBox="0 0 1970 554" version="1.1" xmlns="http://www.w3.org/2000/svg" xmlns:xlink="http://www.w3.org/1999/xlink" xml:space="preserve" xmlns:serif="http://www.serif.com/" style="fill-rule:evenodd;clip-rule:evenodd;stroke-linejoin:round;stroke-miterlimit:2;">
    <g transform="matrix(1,0,0,1,-672.475983,-554.424913)">
        <g transform="matrix(1.025887,0,0,1.025887,1657.327369,831.414365)">
            <g transform="matrix(1,0,0,1,-960,-270)">
                <clipPath id="_clip1">
                    <rect x="0" y="0" width="1920" height="540"/>
                </clipPath>
                <g clip-path="url(#_clip1)">
                    <g transform="matrix(13.485078,0,0,13.485078,-11985.612738,-7013.502914)">
                        <rect x="888.79" y="519.11" width="142.41" height="42.03" style="fill:rgb(27,69,216);"/>
                    </g>
                    <g transform="matrix(1,0,0,1,0,-270)">
                        <g id="Fill-8" transform="matrix(13.485078,0,0,13.485078,-11985.612738,-6743.502914)">
                            <path d="M941.79,539.93C941.79,536.04 939.39,533.64 935.52,533.64C931.39,533.64 928.7,536.22 928.7,540.2C928.7,544.18 931.05,546.61 935,546.61C939.19,546.61 941.79,544.05 941.79,539.94M935.22,545.75C932.41,545.75 930.66,543.58 930.66,540.11C930.66,536.64 932.41,534.5 935.22,534.5C938.03,534.5 939.85,536.61 939.85,540.15C939.85,543.69 938.11,545.75 935.22,545.75" style="fill:white;"/>
                        </g>
                        <g id="Path" transform="matrix(13.485078,0,0,13.485078,-11985.612738,-6743.502914)">
                            <path d="M963.18,534.44L965.87,534.91L966.18,543.08L958.67,533.91L954.88,533.91L954.88,534.44L956.91,534.9L956.83,545.35L955.02,545.78C954.51,545.64 953.7,545.42 952.62,544.08C952.62,544.08 949.82,540.6 949.46,540.17C950.58,539.86 952.37,539.04 952.37,536.93C952.37,535.55 951.62,533.91 948.05,533.91L942.49,533.91L942.49,534.44L944.5,534.9L944.5,545.35L942.49,545.82L942.49,546.34L948.01,546.34L948.01,545.83L946.22,545.35L946.22,534.84C946.75,534.75 947.29,534.69 947.63,534.69C949.62,534.69 950.58,535.42 950.58,536.95C950.58,539.3 948.68,539.64 947.9,539.76C947.63,539.79 947.33,539.8 947.05,539.8L947.05,540.32L947.74,540.55L950.66,544.35C951.63,545.62 952.35,546.34 955.66,546.34L960.56,546.34L960.56,545.82L958.12,545.35L957.83,535.54L966.78,546.62L967.02,546.62L967.17,534.91L968.81,534.44L968.81,533.92L963.2,533.92" style="fill:white;"/>
                        </g>
                        <g id="Fill-81" transform="matrix(13.485078,0,0,13.485078,-11985.612738,-6743.502914)">
                            <path d="M926.12,542.8C925.73,544.07 925.17,545.75 922.29,545.75C919.56,545.75 917.74,543.44 917.73,540.19C917.7,536.74 919.41,534.5 922.4,534.5C924.93,534.5 925.68,536.05 925.96,537.7L926.57,537.7L926.57,534.58C925.88,534.18 923.98,533.64 922.36,533.64C918.43,533.64 915.73,536.3 915.79,540.26C915.84,544.1 918.22,546.61 922.11,546.61C924.32,546.61 925.54,546.02 926.7,545.43L926.98,542.11L926.33,542.11" style="fill:white;"/>
                        </g>
                        <g id="Fill-6" transform="matrix(13.485078,0,0,13.485078,-11985.612738,-6743.502914)">
                            <path d="M982.54,545.81L980.1,545.35L979.81,535.53L988.76,546.61L989,546.61L989.15,534.9L990.79,534.42L990.79,533.91L985.17,533.91L985.17,534.44L987.86,534.91L988.17,543.08L980.66,533.91L976.88,533.91L976.88,534.44L978.9,534.9L978.82,545.35L976.88,545.81L976.88,546.34L982.54,546.34" style="fill:white;"/>
                        </g>
                        <g id="Fill-11" transform="matrix(13.485078,0,0,13.485078,-11985.612738,-6743.502914)">
                            <path d="M1002.61,541.52L1004.21,541.06L1004.21,540.54L998.52,540.54L998.52,541.07L1000.91,541.53L1000.91,544.76C1000.07,545.42 999.13,545.81 997.7,545.76C995.1,545.68 993.27,543.45 993.27,540.2C993.27,536.61 994.95,534.51 998.02,534.51C1000.71,534.51 1001.47,536.25 1001.74,537.69L1002.31,537.69L1002.31,534.62C1001.5,534.17 999.76,533.66 997.76,533.66C993.81,533.66 991.29,536.25 991.32,540.29C991.34,544.05 993.8,546.56 997.58,546.62C1000.18,546.67 1001.55,545.94 1002.62,545.3L1002.62,541.52" style="fill:white;"/>
                        </g>
                        <g id="Fill-14" transform="matrix(13.485078,0,0,13.485078,-11985.612738,-6743.502914)">
                            <path d="M975.72,545.81L973.69,545.35L973.69,534.9L975.72,534.44L975.72,533.91L969.96,533.91L969.96,534.44L971.97,534.9L971.97,545.35L969.96,545.81L969.96,546.34L975.72,546.34" style="fill:white;"/>
                        </g>
                    </g>
                </g>
            </g>
        </g>
    </g>
</svg>
